<?xml version="1.0" standalone="no"?>
<!DOCTYPE svg PUBLIC "-//W3C//DTD SVG 20010904//EN"
 "http://www.w3.org/TR/2001/REC-SVG-20010904/DTD/svg10.dtd">
<svg version="1.0" xmlns="http://www.w3.org/2000/svg"
 width="512.000000pt" height="512.000000pt" viewBox="0 0 512.000000 512.000000"
 preserveAspectRatio="xMidYMid meet">
<metadata>
Created by potrace 1.14, written by Peter Selinger 2001-2017
</metadata>
<g transform="translate(0.000000,512.000000) scale(0.100000,-0.100000)"
fill="#000000" stroke="none">
<path d="M1019 5008 c0 -7 -2 -20 -4 -28 -1 -8 -8 -42 -14 -75 -6 -33 -13 -71
-16 -85 -3 -14 -19 -97 -35 -185 -16 -88 -40 -221 -54 -295 -14 -74 -41 -218
-60 -320 -19 -102 -60 -315 -90 -475 -30 -159 -57 -302 -60 -318 -3 -15 -10
-53 -16 -85 -5 -31 -12 -68 -15 -82 -5 -24 -19 -102 -31 -165 -3 -16 -11 -61
-19 -100 -13 -67 -42 -223 -51 -275 -3 -14 -13 -72 -24 -130 -11 -58 -22 -116
-25 -130 -3 -14 -9 -47 -15 -75 -5 -27 -12 -66 -16 -85 -3 -19 -12 -69 -19
-110 -8 -41 -17 -88 -20 -105 -3 -16 -8 -41 -10 -55 -7 -32 -9 -44 -40 -210
-14 -77 -28 -150 -31 -162 -2 -13 -8 -48 -14 -78 -6 -30 -12 -66 -15 -80 -3
-14 -10 -52 -15 -85 -6 -33 -17 -91 -25 -130 -8 -38 -16 -83 -19 -100 -7 -39
-98 -525 -131 -700 -9 -50 -19 -99 -21 -110 -2 -11 -6 -32 -10 -48 l-6 -27
615 0 615 0 6 27 c7 30 6 28 36 188 12 61 25 130 30 155 5 25 14 72 20 105 5
33 12 71 15 85 3 14 8 39 10 55 3 17 19 100 35 185 16 85 31 166 34 180 9 52
38 208 51 275 8 39 16 84 19 100 16 89 147 782 151 795 2 8 6 33 9 55 4 22 8
51 11 65 9 45 15 75 20 105 3 17 14 75 25 130 10 55 21 114 24 130 8 47 75
401 91 485 8 41 17 91 20 110 3 19 17 94 31 165 14 72 27 141 30 155 2 14 6
36 9 50 3 14 10 51 15 82 18 93 19 103 55 292 19 100 37 195 39 211 3 17 8 41
11 55 3 14 9 50 15 80 6 30 12 66 15 80 5 25 12 63 20 110 2 14 13 70 24 125
11 55 23 118 26 140 4 22 10 56 16 75 20 77 81 70 -606 70 -485 0 -615 -3
-616 -12z"/>
<path d="M2426 5003 c-5 -19 -12 -56 -21 -108 -2 -16 -16 -88 -30 -160 -15
-71 -28 -141 -30 -155 -5 -31 -11 -65 -30 -160 -8 -41 -16 -86 -18 -100 -3
-14 -12 -65 -22 -115 -9 -49 -19 -101 -21 -115 -3 -14 -11 -59 -19 -100 -22
-109 -24 -120 -30 -160 -6 -38 -9 -55 -25 -135 -5 -27 -12 -63 -15 -80 -29
-158 -51 -274 -60 -317 -4 -15 -8 -41 -10 -58 -3 -18 -7 -39 -9 -49 -3 -9 -8
-32 -11 -51 -5 -34 -40 -219 -50 -270 -7 -34 -46 -239 -51 -270 -3 -14 -18
-95 -34 -180 -32 -175 -35 -188 -50 -268 -5 -31 -12 -68 -15 -82 -12 -59 -27
-140 -40 -215 -8 -44 -17 -89 -19 -100 -4 -20 -41 -216 -51 -270 -3 -16 -8
-46 -11 -65 -3 -19 -7 -43 -10 -52 -5 -17 -6 -24 -20 -98 -4 -25 -8 -47 -9
-50 -7 -36 -16 -83 -21 -115 -3 -22 -12 -71 -20 -110 -8 -38 -17 -85 -20 -104
-3 -18 -8 -43 -10 -55 -2 -11 -7 -37 -10 -56 -4 -19 -8 -44 -11 -55 -17 -88
-24 -124 -29 -150 -2 -16 -16 -88 -29 -160 -13 -72 -27 -145 -30 -164 -3 -19
-7 -37 -9 -40 -2 -3 -7 -30 -11 -58 l-6 -53 614 0 615 0 7 46 c3 25 9 56 11
67 10 44 45 233 50 267 3 19 7 43 10 52 3 10 7 30 10 45 9 57 45 250 54 293 6
25 12 60 15 78 10 66 16 95 19 101 2 3 7 26 10 51 3 25 9 56 12 70 5 27 8 42
19 105 3 22 8 48 11 57 3 10 7 30 10 45 4 26 18 102 30 163 5 28 41 221 48
260 3 14 12 61 20 105 8 44 17 91 20 105 7 38 56 302 61 330 5 24 13 71 21
115 2 11 10 54 19 95 8 41 16 86 19 100 5 29 54 292 61 330 3 14 10 50 16 80
15 77 18 98 29 160 6 30 12 64 14 75 12 62 65 345 70 375 3 19 9 46 12 60 5
27 8 42 19 105 3 22 8 48 11 57 3 10 7 30 10 45 5 31 34 186 40 218 2 11 8 45
14 75 14 75 19 100 26 133 3 16 7 38 9 50 1 12 15 85 29 162 15 77 29 151 32
165 2 14 12 60 20 103 9 44 17 92 19 109 3 17 7 39 10 49 6 19 -9 19 -609 19
-577 0 -615 -1 -620 -17z"/>
<path d="M3789 5013 c0 -5 -2 -15 -4 -23 -2 -8 -11 -55 -20 -105 -9 -49 -19
-99 -21 -110 -2 -11 -7 -36 -10 -55 -4 -19 -8 -44 -10 -55 -3 -11 -6 -31 -9
-45 -2 -14 -30 -158 -60 -320 -31 -162 -63 -331 -71 -375 -7 -44 -16 -91 -19
-105 -3 -14 -10 -52 -16 -85 -5 -33 -21 -116 -34 -185 -14 -69 -27 -138 -30
-155 -2 -16 -7 -41 -10 -55 -3 -14 -11 -61 -19 -105 -8 -44 -31 -163 -50 -265
-19 -102 -38 -198 -40 -215 -3 -16 -8 -41 -11 -55 -3 -14 -12 -61 -20 -105
-21 -119 -41 -224 -70 -375 -14 -74 -27 -144 -29 -155 -2 -11 -11 -60 -21
-110 -9 -49 -19 -101 -21 -115 -3 -14 -22 -117 -44 -230 -21 -113 -44 -234
-50 -270 -7 -36 -14 -74 -16 -85 -2 -11 -13 -69 -24 -130 -12 -60 -30 -157
-41 -215 -11 -58 -29 -152 -39 -210 -10 -58 -35 -188 -54 -290 -19 -102 -37
-196 -40 -210 -2 -14 -7 -42 -11 -62 l-7 -38 615 0 614 0 26 138 c38 199 127
672 133 707 3 17 11 62 19 100 8 39 19 97 25 130 5 33 12 71 15 85 3 14 9 50
15 80 6 30 12 66 15 80 22 117 55 291 59 315 4 26 83 449 131 700 9 44 18 93
21 109 3 17 20 111 39 210 19 100 36 192 39 206 2 14 12 66 21 115 10 50 19
101 22 115 2 14 29 156 59 315 68 361 75 400 90 482 3 16 11 60 19 98 8 39 17
85 20 103 7 44 14 83 20 112 3 14 9 50 15 80 6 30 12 66 15 80 3 14 9 50 15
80 6 30 12 66 15 80 3 14 10 52 16 85 19 101 20 107 40 208 10 54 19 100 19
103 0 7 -1230 4 -1231 -3z"/>
</g>
</svg>
