<?xml version="1.0" standalone="no"?>
<!DOCTYPE svg PUBLIC "-//W3C//DTD SVG 20010904//EN"
 "http://www.w3.org/TR/2001/REC-SVG-20010904/DTD/svg10.dtd">
<svg version="1.0" xmlns="http://www.w3.org/2000/svg"
 width="512.000000pt" height="512.000000pt" viewBox="0 0 512.000000 512.000000"
 preserveAspectRatio="xMidYMid meet">
<metadata>
Created by potrace 1.14, written by Peter Selinger 2001-2017
</metadata>
<g transform="translate(0.000000,512.000000) scale(0.100000,-0.100000)"
fill="#000000" stroke="none">
<path d="M2733 5017 c-3 -5 -11 -6 -19 -3 -7 3 -16 1 -19 -5 -4 -5 -11 -7 -16
-4 -5 4 -9 2 -9 -3 0 -8 -35 -23 -49 -21 -2 0 -7 -4 -10 -9 -9 -14 -154 -87
-169 -85 -7 0 -11 -2 -7 -5 3 -3 -20 -18 -50 -33 -31 -15 -62 -32 -70 -39 -8
-6 -19 -9 -24 -6 -5 4 -13 0 -18 -7 -11 -19 -189 -107 -199 -99 -4 4 -3 1 1
-7 6 -11 4 -13 -9 -8 -10 4 -15 3 -11 -3 3 -6 1 -10 -4 -10 -22 0 -26 -2 -41
-15 -24 -21 -77 -45 -84 -38 -3 4 -6 1 -6 -5 0 -7 -6 -12 -14 -12 -8 0 -16 -5
-18 -10 -2 -6 -13 -12 -25 -13 -12 0 -20 -4 -18 -8 7 -10 -45 -30 -58 -23 -7
4 -9 3 -4 -1 4 -5 -19 -23 -50 -40 -37 -19 -61 -27 -65 -20 -5 6 -8 4 -8 -5 0
-17 -76 -57 -98 -52 -8 2 -11 -1 -8 -6 8 -13 -39 -36 -55 -27 -7 5 -10 4 -6
-2 8 -13 -111 -76 -126 -66 -7 3 -9 3 -5 -2 4 -4 0 -14 -10 -21 -13 -9 -20
-10 -31 -1 -11 9 -13 9 -8 0 10 -17 -34 -47 -45 -30 -5 8 -8 6 -8 -7 0 -12 -5
-16 -16 -12 -8 3 -12 2 -9 -4 5 -9 1 -11 -20 -10 -3 1 -13 -6 -21 -15 -9 -8
-20 -13 -25 -10 -5 4 -9 2 -9 -4 0 -9 -100 -61 -115 -61 -3 1 -13 -6 -21 -15
-9 -8 -20 -13 -25 -10 -5 4 -9 2 -9 -4 0 -10 -39 -27 -53 -23 -5 1 -6 -2 -3
-7 7 -11 -22 -23 -36 -14 -7 3 -8 1 -4 -5 6 -11 -6 -16 -26 -13 -5 0 -8 -3 -8
-8 0 -11 -39 -26 -58 -22 -7 1 -11 -4 -10 -11 2 -7 -3 -12 -10 -10 -6 1 -12
-3 -12 -9 0 -5 -4 -7 -10 -4 -6 3 -10 1 -10 -4 0 -6 -6 -11 -13 -11 -15 0
-128 -76 -139 -94 -4 -6 -8 -8 -8 -4 0 4 -13 -5 -29 -20 -16 -15 -28 -29 -27
-32 0 -3 -5 -12 -12 -20 -7 -8 -20 -24 -28 -35 -9 -11 -12 -14 -8 -6 4 9 3 12
-4 7 -6 -4 -9 -13 -6 -21 3 -8 -5 -25 -19 -39 -14 -14 -23 -27 -21 -29 2 -2
-1 -18 -7 -35 -7 -22 -15 -29 -27 -25 -12 3 -13 2 -5 -4 12 -9 7 -56 -6 -49
-7 4 -8 -7 -14 -135 -3 -48 -8 -92 -11 -98 -4 -6 -3 -11 1 -11 15 0 9 -94 -7
-108 -13 -11 -13 -11 0 -7 14 5 17 -123 11 -475 -1 -19 -1 -73 0 -120 0 -47 0
-101 0 -120 -1 -19 0 -160 1 -312 2 -153 -1 -278 -5 -278 -5 0 -5 -5 -1 -11 4
-6 6 -57 5 -113 -1 -55 -2 -105 -2 -111 0 -5 2 -22 4 -38 2 -15 0 -30 -5 -33
-4 -3 -6 -10 -2 -15 3 -6 8 -25 11 -42 2 -18 11 -45 19 -61 8 -16 14 -35 14
-43 0 -8 5 -11 12 -7 8 5 9 2 5 -9 -3 -9 -3 -16 1 -16 21 4 32 -2 26 -13 -4
-7 -3 -10 1 -5 5 4 19 0 31 -8 33 -21 128 -21 176 -1 9 4 22 4 29 0 7 -4 9 -3
6 3 -8 12 81 56 95 47 6 -4 8 -2 5 3 -6 10 3 17 28 23 6 1 16 6 23 12 6 6 12
7 12 2 0 -5 5 -1 11 9 6 9 14 15 20 12 5 -4 9 -2 9 3 0 5 9 12 20 15 31 8 34
9 49 24 7 8 20 12 28 9 8 -3 12 -2 9 3 -3 5 1 12 10 15 22 9 26 8 18 -6 -4 -7
-3 -8 5 -4 6 4 8 12 5 18 -5 8 -1 9 10 5 10 -4 15 -3 11 3 -6 9 8 14 28 11 4
0 7 3 7 8 0 4 28 21 63 36 34 15 64 31 67 36 5 7 26 12 48 10 10 -1 10 -6 2
-21 -6 -11 -7 -20 -2 -20 4 0 8 -9 8 -19 0 -11 -4 -17 -8 -15 -4 3 -8 1 -8 -5
0 -5 5 -13 10 -16 8 -5 7 -11 -1 -21 -9 -11 -8 -14 2 -14 12 0 12 -2 0 -9 -9
-6 -10 -10 -2 -16 9 -5 9 -10 0 -21 -9 -11 -8 -14 2 -14 12 0 12 -2 0 -9 -9
-6 -10 -10 -2 -16 9 -5 9 -10 0 -21 -9 -11 -8 -14 2 -14 12 0 12 -2 0 -9 -9
-6 -10 -10 -2 -16 9 -5 9 -10 0 -21 -9 -11 -8 -14 2 -14 12 0 12 -2 0 -9 -9
-6 -10 -10 -2 -16 9 -5 9 -10 0 -21 -6 -8 -7 -14 -2 -14 11 0 11 -29 0 -47 -4
-6 -1 -14 5 -16 10 -4 10 -6 0 -6 -10 -1 -10 -6 -2 -21 8 -15 8 -20 -1 -20 -8
0 -8 -4 1 -15 10 -12 10 -15 0 -15 -10 0 -10 -3 0 -15 10 -12 10 -15 0 -15
-10 0 -10 -3 -1 -14 9 -11 9 -16 0 -21 -8 -6 -7 -10 2 -16 12 -7 12 -9 0 -9
-10 0 -11 -3 -2 -13 8 -10 7 -17 -1 -25 -7 -7 -8 -12 -2 -12 13 0 12 -43 -1
-52 -6 -5 -5 -8 3 -8 16 0 16 -42 -1 -60 -10 -12 -9 -12 4 -2 14 11 18 9 23
-13 9 -35 64 -94 101 -109 49 -21 142 -10 206 24 31 16 59 26 63 23 3 -4 6 0
6 7 0 7 3 11 6 7 4 -3 13 1 21 9 9 8 23 12 31 9 9 -3 13 -3 9 1 -4 5 34 29 85
54 51 26 109 56 130 67 20 12 39 19 42 16 3 -4 6 -1 6 5 0 6 10 14 23 17 31 9
91 38 98 49 9 11 15 -3 18 -42 1 -18 -3 -40 -11 -49 -9 -12 -9 -15 0 -9 8 5
12 0 12 -16 0 -13 -6 -30 -12 -37 -10 -11 -10 -13 0 -7 8 5 12 -2 12 -26 0
-19 -6 -40 -12 -47 -8 -8 -8 -11 -2 -8 17 10 18 -231 1 -252 -9 -12 -9 -13 1
-7 9 5 12 -8 12 -56 0 -37 -5 -70 -12 -77 -10 -11 -10 -13 0 -7 8 5 12 -2 12
-26 0 -19 -6 -40 -12 -47 -10 -11 -10 -13 0 -7 9 5 12 -6 13 -43 2 -66 0 -57
33 -123 16 -32 32 -55 36 -53 4 3 13 -2 20 -10 18 -21 132 -37 158 -21 6 4 17
4 22 1 6 -3 10 -2 10 3 0 5 7 9 15 10 8 1 22 3 30 4 8 1 11 6 8 11 -4 6 1 8
11 4 10 -4 15 -3 11 3 -6 9 8 14 28 11 4 0 7 3 7 8 0 10 39 27 53 23 4 -1 7 2
7 7 0 11 39 26 59 22 7 -1 10 2 7 7 -7 12 22 24 36 15 6 -3 8 -2 5 4 -3 5 25
26 63 45 39 20 67 31 64 25 -3 -7 0 -5 8 3 14 17 108 65 121 62 4 -1 7 2 7 7
0 9 48 26 63 22 5 -1 6 2 3 7 -7 12 42 34 57 26 7 -4 9 -4 5 1 -10 11 60 47
74 39 7 -4 8 -3 4 4 -6 10 7 17 17 10 2 -2 12 5 22 15 9 10 24 16 32 13 8 -3
12 -2 9 2 -4 8 72 51 84 48 3 0 20 9 38 22 17 13 32 20 32 17 0 -4 7 1 16 9 8
9 20 14 25 11 5 -4 9 -1 9 5 0 6 5 8 10 5 6 -3 10 -1 10 5 0 6 5 8 10 5 6 -3
10 -1 10 5 0 7 7 9 16 6 8 -3 12 -2 9 4 -3 6 -1 10 4 10 18 0 26 3 39 17 8 7
18 11 23 8 5 -4 9 -1 9 5 0 6 5 8 10 5 6 -3 10 -2 10 3 0 4 28 22 62 38 35 16
93 46 130 66 38 20 68 33 68 30 0 -4 4 -2 8 3 12 17 52 36 62 30 6 -4 10 -2
10 4 0 12 60 46 60 34 0 -5 4 -3 8 2 11 15 72 47 72 38 0 -4 5 -1 10 7 9 13
11 13 21 0 9 -13 10 -12 5 3 -5 15 0 19 20 16 4 0 10 3 13 8 12 16 93 53 103
46 7 -3 8 -1 4 5 -4 7 3 14 19 18 14 3 25 11 25 16 0 6 7 8 15 4 8 -3 19 2 24
12 5 9 13 14 16 10 4 -4 14 0 22 8 8 8 19 11 25 8 6 -4 8 -2 5 3 -8 13 20 26
35 16 6 -3 8 -1 5 4 -7 10 20 28 35 25 5 -1 7 1 6 6 -4 10 74 88 84 84 5 -1 7
2 3 8 -3 5 1 13 9 16 9 3 14 9 11 13 -2 4 7 19 21 34 13 15 25 30 27 34 1 5 6
7 10 5 5 -1 6 2 3 7 -7 11 14 62 23 57 3 -2 7 10 8 26 1 17 8 36 14 44 6 8 8
14 4 14 -5 0 0 10 11 22 10 12 13 18 5 13 -11 -6 -13 -4 -7 11 5 10 10 81 11
156 2 75 6 142 10 148 3 5 3 10 -2 10 -10 0 -9 133 1 149 4 6 3 11 -1 11 -15
0 -9 94 7 108 13 11 13 11 0 7 -12 -4 -15 5 -14 49 1 30 5 59 8 65 4 6 3 11
-1 11 -15 0 -9 94 7 108 13 11 13 11 0 7 -12 -4 -15 5 -14 49 1 30 5 59 8 65
4 6 4 11 -1 11 -10 0 -9 133 1 149 4 6 3 11 -1 11 -15 0 -9 94 7 108 13 11 13
11 0 7 -12 -4 -15 5 -14 49 1 30 5 59 8 65 4 6 3 11 -1 11 -15 0 -9 94 7 108
13 11 13 11 0 7 -12 -4 -15 5 -14 49 1 30 5 59 8 65 4 6 4 11 -1 11 -10 0 -9
133 1 149 4 6 3 11 -1 11 -15 0 -9 94 7 108 13 11 13 11 0 7 -13 -4 -15 9 -16
82 0 61 -6 98 -17 120 -13 24 -14 33 -4 36 7 3 5 6 -5 6 -16 1 -23 12 -19 34
1 5 -2 6 -7 3 -5 -3 -19 5 -33 18 -22 20 -35 23 -112 23 -48 0 -85 -2 -82 -5
5 -5 -69 -42 -93 -46 -7 -1 -18 -8 -24 -14 -7 -7 -18 -12 -25 -12 -7 0 -13 -5
-13 -11 0 -5 -4 -7 -10 -4 -5 3 -10 1 -10 -5 0 -6 -4 -8 -10 -5 -5 3 -10 1
-10 -6 0 -7 -3 -10 -6 -6 -4 3 -13 -1 -21 -9 -9 -8 -22 -13 -30 -10 -9 4 -11
2 -7 -6 5 -8 2 -9 -10 -5 -9 4 -14 3 -11 -2 3 -5 -5 -13 -17 -17 -13 -4 -25
-10 -28 -13 -3 -4 -59 -34 -125 -67 -66 -32 -123 -63 -126 -67 -3 -4 -6 39 -6
97 0 74 3 103 11 99 8 -5 8 -2 0 8 -8 9 -11 107 -11 309 -1 162 -4 303 -8 314
-5 10 -8 31 -9 46 -1 16 -3 26 -5 24 -6 -6 -36 39 -33 49 1 5 -2 6 -8 2 -5 -3
-13 1 -16 9 -3 9 -15 16 -26 16 -10 0 -17 4 -13 9 3 5 0 13 -6 17 -8 4 -9 3
-5 -5 6 -8 -4 -10 -36 -5 -24 3 -49 7 -55 10 -7 2 -13 -2 -13 -7 0 -7 -11 -9
-25 -7 -15 3 -22 1 -18 -5 4 -6 -2 -8 -16 -4 -13 3 -20 3 -17 -1 5 -4 -168
-102 -182 -102 -2 0 0 5 4 12 4 7 3 8 -5 4 -6 -4 -9 -11 -7 -15 7 -10 -83 -53
-95 -45 -5 3 -8 0 -7 -8 2 -7 -3 -12 -9 -11 -7 2 -13 -2 -13 -8 0 -6 -7 -8
-16 -5 -8 3 -12 2 -9 -3 5 -9 -32 -27 -47 -23 -5 1 -8 -2 -8 -7 0 -5 -11 -12
-25 -15 -14 -4 -25 -11 -25 -17 0 -6 -4 -7 -10 -4 -5 3 -10 1 -10 -4 0 -6 -9
-11 -20 -11 -11 0 -20 -5 -20 -11 0 -5 -4 -7 -10 -4 -5 3 -10 3 -10 -2 0 -12
-51 -33 -63 -26 -6 3 -7 1 -3 -5 4 -7 3 -12 -3 -12 -14 0 -12 191 2 209 8 10
8 13 1 8 -16 -9 -17 133 -1 152 7 9 8 12 1 8 -8 -4 -12 27 -13 108 -1 87 2
115 11 115 9 0 10 2 2 8 -7 4 -13 45 -15 102 -3 61 -9 100 -17 109 -7 7 -11
20 -8 28 3 8 1 11 -4 8 -6 -3 -10 1 -10 9 0 9 -6 16 -14 16 -8 0 -16 7 -20 15
-3 8 -13 15 -22 15 -11 0 -14 5 -10 16 5 14 4 15 -8 5 -8 -7 -21 -9 -27 -5
-17 10 -90 11 -96 1z"/>
<path d="M4750 1601 c0 -6 4 -13 10 -16 6 -3 7 1 4 9 -7 18 -14 21 -14 7z"/>
</g>
</svg>
